<?xml version="1.0" encoding="utf-8"?>
<!-- Generator: Adobe Illustrator 14.0.0, SVG Export Plug-In . SVG Version: 6.00 Build 43363)  -->
<!DOCTYPE svg PUBLIC "-//W3C//DTD SVG 1.1//EN" "http://www.w3.org/Graphics/SVG/1.1/DTD/svg11.dtd">
<svg version="1.1" id="Calque_1" xmlns="http://www.w3.org/2000/svg" xmlns:xlink="http://www.w3.org/1999/xlink" x="0px" y="0px"
	 width="1454.17px" height="878.74px" viewBox="0 0 1454.17 878.74" enable-background="new 0 0 1454.17 878.74"
	 xml:space="preserve">
<path fill="#EBEBEB" d="M686.33,428.216c-1.771,0.992-3.755,1.754-5.951,2.285c-2.161,0.567-4.304,0.886-6.43,0.957
	c-2.125,0.035-3.985-0.195-5.579-0.691c-2.338-0.815-3.401-1.984-3.188-3.507c0.177-1.523,1.594-3.046,4.251-4.57
	c1.771-0.992,3.755-1.771,5.951-2.338c2.161-0.532,4.304-0.833,6.429-0.903s3.985,0.142,5.58,0.638
	c2.338,0.814,3.4,1.983,3.188,3.507C690.403,425.116,688.986,426.657,686.33,428.216"/>
<path fill="#EBEBEB" d="M698.392,437.409c-1.523,0.85-3.206,1.505-5.048,1.966c-1.877,0.46-3.72,0.727-5.526,0.797
	c-1.771,0.035-3.348-0.159-4.729-0.584c-1.984-0.673-2.887-1.665-2.71-2.976c0.177-1.275,1.381-2.568,3.613-3.879
	c1.523-0.851,3.206-1.506,5.048-1.966c1.842-0.496,3.667-0.762,5.473-0.797c1.807-0.071,3.383,0.106,4.729,0.531
	c1.984,0.708,2.887,1.7,2.71,2.976C701.81,434.787,700.623,436.098,698.392,437.409"/>
<path fill="#EBEBEB" d="M692.122,449.684c-1.523,0.85-3.206,1.505-5.048,1.966c-1.877,0.46-3.72,0.726-5.526,0.797
	c-1.771,0.035-3.348-0.159-4.729-0.585c-1.984-0.673-2.887-1.664-2.71-2.976c0.177-1.274,1.381-2.568,3.613-3.878
	c1.523-0.851,3.206-1.506,5.048-1.967c1.842-0.496,3.667-0.762,5.473-0.797c1.807-0.07,3.383,0.106,4.729,0.531
	c1.984,0.709,2.887,1.719,2.71,3.029C695.54,447.079,694.354,448.372,692.122,449.684"/>
<path fill="#EBEBEB" d="M671.983,460.417c-1.523,0.85-3.206,1.505-5.048,1.966c-1.877,0.46-3.72,0.727-5.526,0.797
	c-1.771,0.035-3.348-0.159-4.729-0.584c-1.984-0.674-2.887-1.665-2.71-2.977c0.177-1.274,1.381-2.567,3.613-3.879
	c1.523-0.85,3.206-1.505,5.048-1.966c1.842-0.496,3.667-0.762,5.473-0.797c1.807-0.071,3.383,0.106,4.729,0.531
	c1.984,0.709,2.887,1.718,2.71,3.029C675.401,457.813,674.215,459.105,671.983,460.417"/>
<path fill="#EBEBEB" d="M646.584,465.358c-1.523,0.85-3.206,1.506-5.048,1.966c-1.877,0.461-3.719,0.727-5.526,0.797
	c-1.771,0.036-3.348-0.159-4.729-0.584c-1.983-0.673-2.887-1.665-2.71-2.976c0.177-1.275,1.382-2.568,3.613-3.879
	c1.523-0.851,3.206-1.506,5.048-1.967c1.842-0.495,3.666-0.761,5.473-0.797c1.807-0.07,3.383,0.106,4.729,0.531
	c1.983,0.709,2.887,1.719,2.71,3.029C650.002,462.755,648.815,464.048,646.584,465.358"/>
<path fill="#EBEBEB" d="M647.062,423.806c-1.205,0.708-1.842,1.399-1.913,2.072c-0.071,0.673,0.408,1.205,1.435,1.594
	c1.098,0.319,2.409,0.372,3.932,0.16c1.523-0.213,2.905-0.656,4.145-1.329c1.204-0.708,1.842-1.399,1.913-2.072
	c0.106-0.673-0.372-1.205-1.435-1.594c-1.098-0.319-2.409-0.372-3.932-0.159C649.684,422.69,648.302,423.133,647.062,423.806"/>
<path fill="#EBEBEB" d="M624.745,428.854c-1.311,0.779-2.019,1.541-2.125,2.285c-0.106,0.779,0.425,1.364,1.594,1.753
	c1.24,0.39,2.71,0.46,4.41,0.212c1.665-0.248,3.188-0.744,4.57-1.488c1.311-0.779,2.019-1.541,2.125-2.285
	c0.106-0.779-0.425-1.364-1.594-1.753c-1.24-0.39-2.71-0.46-4.41-0.213C627.649,427.614,626.126,428.11,624.745,428.854"/>
<path fill="#EBEBEB" d="M606.466,439.162c-1.594,0.921-2.444,1.824-2.55,2.71c-0.106,0.921,0.531,1.63,1.913,2.126
	c0.957,0.283,2.072,0.407,3.348,0.372c1.275-0.036,2.568-0.213,3.879-0.531c1.311-0.354,2.498-0.815,3.56-1.382
	c1.594-0.921,2.444-1.842,2.551-2.764c0.106-0.921-0.531-1.629-1.913-2.125c-0.957-0.283-2.072-0.407-3.348-0.372
	c-1.275,0.035-2.568,0.212-3.879,0.531C608.715,438.082,607.528,438.56,606.466,439.162"/>
<path fill="#EBEBEB" d="M601.418,450.64c-1.842,1.063-2.834,2.144-2.976,3.241c-0.142,1.063,0.602,1.878,2.231,2.444
	c1.134,0.354,2.444,0.514,3.932,0.479c1.453-0.071,2.94-0.302,4.463-0.691c1.559-0.39,2.958-0.921,4.198-1.594
	c1.842-1.099,2.834-2.179,2.976-3.241c0.106-1.063-0.655-1.878-2.285-2.444c-1.098-0.354-2.391-0.514-3.879-0.479
	c-1.488,0.071-2.993,0.302-4.517,0.691C604.04,449.436,602.658,449.967,601.418,450.64"/>
<path fill="#EBEBEB" d="M624.054,463.286c-1.346,0.744-2.834,1.311-4.463,1.7c-1.63,0.425-3.242,0.673-4.835,0.744
	c-1.594,0.035-2.994-0.142-4.198-0.531c-1.736-0.603-2.533-1.471-2.392-2.604c0.142-1.17,1.205-2.32,3.188-3.454
	c1.346-0.744,2.834-1.329,4.463-1.754s3.241-0.655,4.835-0.69c1.559-0.035,2.94,0.124,4.145,0.479
	c1.771,0.637,2.568,1.522,2.391,2.656C627.047,460.966,626.002,462.117,624.054,463.286"/>
<path fill="#B5DC10" d="M685.904,421.521c-1.771,0.992-3.755,1.753-5.951,2.285c-2.161,0.567-4.304,0.886-6.429,0.957
	c-2.125,0.036-3.985-0.195-5.58-0.691c-2.338-0.814-3.4-1.983-3.188-3.507c0.177-1.523,1.594-3.046,4.251-4.57
	c1.771-0.992,3.755-1.771,5.951-2.338c2.161-0.531,4.304-0.833,6.43-0.903s3.985,0.142,5.579,0.638
	c2.338,0.815,3.401,1.984,3.188,3.507C689.979,418.421,688.562,419.962,685.904,421.521"/>
<path fill="#B5DC10" d="M697.966,430.66c-1.523,0.851-3.206,1.506-5.048,1.966c-1.877,0.46-3.719,0.726-5.526,0.797
	c-1.771,0.036-3.348-0.159-4.729-0.584c-1.983-0.673-2.887-1.665-2.71-2.976c0.177-1.275,1.382-2.568,3.613-3.879
	c1.523-0.85,3.206-1.505,5.048-1.966c1.842-0.496,3.667-0.762,5.473-0.797c1.807-0.071,3.383,0.106,4.729,0.531
	c1.984,0.708,2.887,1.701,2.71,2.976C701.385,428.039,700.198,429.35,697.966,430.66"/>
<path fill="#B5DC10" d="M691.696,442.935c-1.523,0.851-3.206,1.506-5.048,1.967c-1.877,0.46-3.72,0.726-5.526,0.797
	c-1.771,0.035-3.347-0.159-4.729-0.585c-1.984-0.673-2.887-1.665-2.71-2.976c0.177-1.275,1.382-2.568,3.613-3.879
	c1.523-0.85,3.206-1.505,5.048-1.966c1.842-0.496,3.667-0.762,5.473-0.797c1.807-0.071,3.383,0.106,4.729,0.532
	c1.983,0.708,2.887,1.718,2.709,3.028C695.115,440.331,693.928,441.624,691.696,442.935"/>
<path fill="#B5DC10" d="M671.558,453.722c-1.523,0.85-3.206,1.505-5.048,1.966c-1.877,0.461-3.72,0.727-5.526,0.797
	c-1.771,0.035-3.348-0.159-4.729-0.584c-1.983-0.674-2.887-1.665-2.71-2.976c0.177-1.275,1.382-2.568,3.613-3.879
	c1.523-0.851,3.206-1.506,5.048-1.967c1.842-0.495,3.666-0.762,5.473-0.797c1.807-0.07,3.383,0.106,4.729,0.531
	c1.983,0.709,2.887,1.719,2.71,3.029C674.976,451.118,673.79,452.411,671.558,453.722"/>
<path fill="#B5DC10" d="M646.159,458.61c-1.523,0.85-3.206,1.505-5.048,1.966c-1.877,0.46-3.72,0.727-5.526,0.797
	c-1.771,0.035-3.348-0.159-4.729-0.584c-1.984-0.674-2.887-1.665-2.71-2.977c0.177-1.274,1.381-2.567,3.613-3.879
	c1.523-0.85,3.206-1.505,5.048-1.966c1.842-0.496,3.667-0.762,5.473-0.797c1.807-0.071,3.383,0.106,4.729,0.531
	c1.984,0.709,2.887,1.718,2.71,3.029C649.577,456.006,648.391,457.299,646.159,458.61"/>
<path fill="#B5DC10" d="M646.637,417.058c-1.169,0.708-1.807,1.399-1.913,2.072c-0.071,0.673,0.407,1.204,1.435,1.594
	c1.098,0.318,2.409,0.372,3.932,0.159s2.905-0.655,4.145-1.329c1.205-0.708,1.842-1.399,1.913-2.072
	c0.106-0.673-0.372-1.204-1.435-1.594c-1.099-0.319-2.409-0.372-3.932-0.16C649.258,415.941,647.877,416.384,646.637,417.058"/>
<path fill="#B5DC10" d="M624.32,422.105c-1.311,0.779-2.019,1.541-2.125,2.285c-0.106,0.779,0.425,1.364,1.594,1.753
	c1.24,0.39,2.71,0.461,4.411,0.213c1.665-0.248,3.188-0.744,4.57-1.488c1.311-0.779,2.019-1.541,2.125-2.285
	c0.106-0.779-0.425-1.364-1.594-1.753c-1.24-0.39-2.71-0.46-4.41-0.212C627.225,420.866,625.701,421.361,624.32,422.105"/>
<path fill="#B5DC10" d="M606.041,432.414c-1.594,0.921-2.444,1.824-2.551,2.71c-0.106,0.921,0.531,1.629,1.913,2.125
	c0.956,0.284,2.072,0.408,3.348,0.372c1.275-0.035,2.568-0.212,3.879-0.531c1.311-0.354,2.497-0.815,3.56-1.381
	c1.594-0.921,2.444-1.842,2.55-2.763c0.106-0.921-0.531-1.629-1.913-2.125c-0.957-0.284-2.073-0.407-3.348-0.372
	c-1.275,0.036-2.568,0.212-3.879,0.531C608.29,431.333,607.104,431.812,606.041,432.414"/>
<path fill="#B5DC10" d="M600.993,443.892c-1.842,1.063-2.834,2.143-2.976,3.241c-0.142,1.063,0.603,1.877,2.232,2.444
	c1.134,0.354,2.444,0.514,3.932,0.478c1.452-0.07,2.94-0.301,4.463-0.69c1.559-0.39,2.958-0.921,4.198-1.594
	c1.842-1.099,2.834-2.179,2.976-3.241c0.106-1.063-0.655-1.878-2.285-2.444c-1.098-0.354-2.391-0.514-3.879-0.479
	c-1.488,0.071-2.994,0.302-4.517,0.691C603.614,442.688,602.233,443.219,600.993,443.892"/>
<path fill="#B5DC10" d="M623.629,456.591c-1.346,0.744-2.834,1.311-4.463,1.7c-1.629,0.425-3.241,0.673-4.835,0.744
	c-1.594,0.035-2.993-0.142-4.198-0.531c-1.736-0.603-2.533-1.471-2.391-2.604c0.142-1.169,1.205-2.32,3.188-3.454
	c1.346-0.744,2.834-1.328,4.463-1.754c1.63-0.425,3.242-0.655,4.835-0.69c1.559-0.035,2.94,0.124,4.145,0.479
	c1.771,0.638,2.568,1.522,2.391,2.656C626.622,454.271,625.577,455.422,623.629,456.591"/>
<path fill="#C41200" d="M624.356,426.753L624.356,426.753h-7.261l-3.688,17.417c0,0-0.201,0.906-0.025,1.699l0,0
	c0,0,0.164,0.806,0.629,1.384l0,0c0,0,0.466,0.579,1.196,0.932l0,0c0,0,0.729,0.34,1.623,0.34l0,0h11.616l0.931-4.354h-7.261
	c0,0-0.604,0-0.944-0.415l0,0c0,0-0.327-0.428-0.188-1.032l0,0L624.356,426.753L624.356,426.753z M643.787,431.108L643.787,431.108
	h14.523l0.894-4.354h-18.877c0,0-0.894,0-1.774,0.34l0,0c0,0-0.868,0.353-1.573,0.931l0,0c0,0-0.717,0.579-1.221,1.384l0,0
	c0,0-0.516,0.793-0.692,1.699l0,0l-0.919,4.354c0,0-0.214,0.906-0.038,1.699l0,0c0,0,0.176,0.793,0.642,1.384l0,0
	c0,0,0.466,0.579,1.196,0.919l0,0c0,0,0.717,0.352,1.624,0.352l0,0h10.168c0,0,0.604,0,0.944,0.429l0,0c0,0,0.327,0.415,0.189,1.031
	l0,0l-0.302,1.447c0,0-0.138,0.604-0.642,1.032l0,0c0,0-0.516,0.415-1.12,0.415l0,0h-14.523l-0.931,4.354h18.877
	c0,0,0.906,0,1.774-0.34l0,0c0,0,0.869-0.353,1.586-0.932l0,0c0,0,0.705-0.578,1.208-1.384l0,0c0,0,0.516-0.793,0.717-1.699l0,0
	l0.931-4.354c0,0,0.176-0.894,0-1.699l0,0c0,0-0.176-0.793-0.629-1.372l0,0c0,0-0.453-0.591-1.17-0.931l0,0
	c0,0-0.73-0.352-1.624-0.352l0,0h-10.168c0,0-0.617,0-0.957-0.416l0,0c0,0-0.353-0.428-0.201-1.032l0,0l0.314-1.46
	c0,0,0.139-0.604,0.654-1.032l0,0C642.667,431.523,643.17,431.108,643.787,431.108L643.787,431.108L643.787,431.108z M666,442.724
	L666,442.724l2.152-10.168c0,0,0.139-0.604,0.654-1.032l0,0c0,0,0.504-0.415,1.12-0.415l0,0h5.802c0,0,0.617,0,0.944,0.415l0,0
	c0,0,0.34,0.428,0.189,1.032l0,0l-0.314,1.46h7.261l0.629-2.907c0,0,0.176-0.906,0-1.699l0,0c0,0-0.164-0.805-0.629-1.384l0,0
	c0,0-0.466-0.579-1.196-0.931l0,0c0,0-0.729-0.34-1.623-0.34l0,0h-14.523c0,0-0.906,0-1.774,0.34l0,0c0,0-0.868,0.353-1.585,0.931
	l0,0c0,0-0.705,0.579-1.208,1.384l0,0c0,0-0.516,0.793-0.692,1.699l0,0l-2.781,13.063c0,0-0.201,0.906-0.038,1.699l0,0
	c0,0,0.176,0.806,0.642,1.384l0,0c0,0,0.466,0.579,1.196,0.932l0,0c0,0,0.73,0.34,1.624,0.34l0,0h14.523c0,0,0.893,0,1.774-0.34l0,0
	c0,0,0.868-0.353,1.573-0.932l0,0c0,0,0.718-0.578,1.221-1.384l0,0c0,0,0.516-0.793,0.718-1.699l0,0l0.604-2.895h-7.262l-0.29,1.447
	c0,0-0.138,0.604-0.654,1.032l0,0c0,0-0.503,0.415-1.107,0.415l0,0h-5.814c0,0-0.604,0-0.943-0.415l0,0
	C666.188,443.756,665.861,443.328,666,442.724L666,442.724L666,442.724z"/>
</svg>
